<svg width="24" height="24" viewBox="0 0 24 24" fill="none" xmlns="http://www.w3.org/2000/svg">
<path d="M24 2.004C24 1.63721 23.8991 1.27748 23.7084 0.964168C23.5177 0.650855 23.2445 0.396023 22.9187 0.227543C22.5929 0.0590639 22.227 -0.0165738 21.8611 0.00890398C21.4952 0.0343818 21.1433 0.159994 20.844 0.372L6.844 10.298C6.58394 10.4819 6.37156 10.7252 6.22453 11.0078C6.07751 11.2903 6.00009 11.6039 5.99872 11.9224C5.99735 12.2409 6.07207 12.5551 6.21666 12.8389C6.36125 13.1227 6.57153 13.3679 6.83 13.554L20.83 23.628C21.1287 23.8434 21.481 23.9722 21.8482 24.0002C22.2154 24.0281 22.5832 23.9541 22.911 23.7864C23.2388 23.6187 23.514 23.3637 23.7062 23.0495C23.8983 22.7354 24 22.3743 24 22.006V2.004ZM0 1C0 0.734784 0.105356 0.48043 0.292892 0.292893C0.480429 0.105357 0.734783 0 1 0C1.26522 0 1.51957 0.105357 1.70711 0.292893C1.89464 0.48043 2 0.734784 2 1V23C2 23.2652 1.89464 23.5196 1.70711 23.7071C1.51957 23.8946 1.26522 24 1 24C0.734783 24 0.480429 23.8946 0.292892 23.7071C0.105356 23.5196 0 23.2652 0 23V1Z" fill="white"/>
</svg>
