<svg width="30" height="30" viewBox="0 0 30 30" fill="none" xmlns="http://www.w3.org/2000/svg">
<g opacity="0.8">
<path d="M15.0001 1.25C15.8209 1.25 16.6336 1.41166 17.3919 1.72575C18.1502 2.03984 18.8391 2.50022 19.4195 3.08058C19.9999 3.66095 20.4603 4.34994 20.7743 5.10823C21.0884 5.86651 21.2501 6.67924 21.2501 7.5V12.5C21.2501 14.1576 20.5916 15.7473 19.4195 16.9194C18.2474 18.0915 16.6577 18.75 15.0001 18.75C13.3425 18.75 11.7528 18.0915 10.5807 16.9194C9.40858 15.7473 8.7501 14.1576 8.7501 12.5V7.5C8.7501 5.8424 9.40858 4.25269 10.5807 3.08058C11.7528 1.90848 13.3425 1.25 15.0001 1.25ZM3.81885 13.75H6.3376C6.64046 15.831 7.68243 17.7333 9.27289 19.1091C10.8633 20.4848 12.8959 21.2419 14.9988 21.2419C17.1017 21.2419 19.1344 20.4848 20.7248 19.1091C22.3153 17.7333 23.3572 15.831 23.6601 13.75H26.1801C25.8959 16.2859 24.7584 18.6499 22.9541 20.4544C21.1499 22.2589 18.786 23.3967 16.2501 23.6812V28.75H13.7501V23.6812C11.214 23.397 8.84983 22.2593 7.04532 20.4548C5.24081 18.6503 4.10311 16.2861 3.81885 13.75Z" fill="white"/>
</g>
</svg>
