<svg width="19" height="21" viewBox="0 0 19 21" fill="none" xmlns="http://www.w3.org/2000/svg">
<path fill-rule="evenodd" clip-rule="evenodd" d="M16.6711 0.20791C16.9576 0.160136 17.251 0.175322 17.531 0.252413C17.811 0.329503 18.0708 0.466648 18.2925 0.654314C18.5141 0.84198 18.6922 1.07566 18.8144 1.33912C18.9366 1.60258 19 1.88949 19.0001 2.17991V13.9999C18.9999 14.8804 18.7092 15.7362 18.173 16.4347C17.6369 17.1331 16.8853 17.6351 16.0347 17.8629C15.1842 18.0906 14.2823 18.0314 13.4688 17.6943C12.6554 17.3572 11.9759 16.7612 11.5358 15.9986C11.0956 15.236 10.9194 14.3495 11.0344 13.4766C11.1494 12.6036 11.5492 11.793 12.1718 11.1704C12.7945 10.5479 13.6051 10.1481 14.4781 10.0332C15.3511 9.91831 16.2376 10.0947 17.0001 10.5349V6.17991L7.00009 7.84691V14.9999C7.00009 15.0599 6.99509 15.1179 6.98509 15.1739C7.05688 15.9429 6.87231 16.714 6.46014 17.3672C6.04796 18.0203 5.43133 18.5188 4.70631 18.7849C3.98129 19.051 3.18861 19.0699 2.45176 18.8385C1.7149 18.6072 1.07527 18.1386 0.632507 17.5058C0.189745 16.873 -0.0312786 16.1115 0.00387287 15.34C0.0390244 14.5684 0.328376 13.8302 0.826848 13.2403C1.32532 12.6504 2.00491 12.2419 2.75975 12.0785C3.51459 11.9151 4.30228 12.0059 5.00009 12.3369V3.84691C5.00003 3.37347 5.16793 2.91536 5.47391 2.55409C5.77988 2.19281 6.2041 1.95179 6.67109 1.87391L16.6711 0.20791ZM7.00009 5.81991L17.0001 4.15291V2.17991L7.00009 3.84691V5.81991Z" fill="white"/>
</svg>
