<svg width="24" height="24" viewBox="0 0 24 24" fill="none" xmlns="http://www.w3.org/2000/svg">
<path d="M0 2.004C1.34846e-05 1.63721 0.100895 1.27748 0.29161 0.964168C0.482325 0.650855 0.755528 0.396023 1.08134 0.227543C1.40715 0.0590639 1.77301 -0.0165738 2.13892 0.00890398C2.50483 0.0343818 2.85668 0.159994 3.156 0.372L17.156 10.298C17.4161 10.4819 17.6284 10.7252 17.7755 11.0078C17.9225 11.2903 17.9999 11.6039 18.0013 11.9224C18.0027 12.2409 17.9279 12.5551 17.7833 12.8389C17.6388 13.1227 17.4285 13.3679 17.17 13.554L3.17 23.628C2.87133 23.8434 2.51899 23.9722 2.15179 24.0002C1.7846 24.0281 1.41682 23.9541 1.08899 23.7864C0.761154 23.6187 0.485999 23.3637 0.293848 23.0495C0.101697 22.7354 1.22596e-05 22.3743 0 22.006V2.004ZM24 1C24 0.734784 23.8946 0.48043 23.7071 0.292893C23.5196 0.105357 23.2652 0 23 0C22.7348 0 22.4804 0.105357 22.2929 0.292893C22.1054 0.48043 22 0.734784 22 1V23C22 23.2652 22.1054 23.5196 22.2929 23.7071C22.4804 23.8946 22.7348 24 23 24C23.2652 24 23.5196 23.8946 23.7071 23.7071C23.8946 23.5196 24 23.2652 24 23V1Z" fill="white"/>
</svg>
