<svg width="64" height="64" viewBox="0 0 64 64" fill="none" xmlns="http://www.w3.org/2000/svg">
<path d="M9.37591 54.6237C6.31959 51.6718 3.88176 48.1407 2.20467 44.2366C0.527579 40.3325 -0.35518 36.1334 -0.392102 31.8845C-0.429024 27.6356 0.38063 23.4218 1.98962 19.4891C3.59861 15.5565 5.97471 11.9836 8.97927 8.97903C11.9838 5.97446 15.5567 3.59836 19.4894 1.98937C23.4221 0.380386 27.6358 -0.429269 31.8848 -0.392346C36.1337 -0.355424 40.3327 0.527335 44.2369 2.20442C48.141 3.88151 51.672 6.31934 54.6239 9.37567C60.453 15.4109 63.6784 23.4942 63.6055 31.8845C63.5326 40.2748 60.1672 48.3008 54.2341 54.2339C48.301 60.1669 40.275 63.5323 31.8848 63.6052C23.4945 63.6781 15.4112 60.4527 9.37591 54.6237ZM22.3999 19.1997V44.7997H28.7999V19.1997H22.3999ZM35.1999 19.1997V44.7997H41.5999V19.1997H35.1999Z" fill="white"/>
</svg>
